<?xml version="1.0" standalone="no"?>
<!DOCTYPE svg PUBLIC "-//W3C//DTD SVG 20010904//EN"
 "http://www.w3.org/TR/2001/REC-SVG-20010904/DTD/svg10.dtd">
<svg version="1.0" xmlns="http://www.w3.org/2000/svg"
 width="586.000000pt" height="390.000000pt" viewBox="0 0 586.000000 390.000000"
 preserveAspectRatio="xMidYMid meet">

<g transform="translate(0.000000,390.000000) scale(0.100000,-0.100000)"
fill="#000000" stroke="none">
<path d="M1275 3886 c-130 -21 -305 -84 -305 -109 0 -10 19 -16 63 -20 233
-22 487 -227 705 -570 45 -70 82 -135 82 -144 0 -9 -50 -294 -111 -632 -83
-461 -116 -626 -132 -656 -37 -67 -113 -105 -209 -105 -36 0 -48 -4 -48 -15 0
-13 46 -15 355 -15 219 0 355 4 355 10 0 5 -17 12 -37 15 -99 17 -143 50 -143
107 0 34 147 940 158 977 7 20 64 -64 397 -577 228 -351 396 -601 405 -602 11
0 19 18 27 62 22 116 77 203 387 616 l295 394 10 -39 c6 -21 42 -171 81 -333
89 -369 117 -455 191 -605 159 -322 414 -537 733 -616 115 -29 323 -36 441
-15 188 32 306 86 193 86 -270 1 -481 139 -612 399 -90 177 -111 260 -340
1331 -147 687 -186 856 -199 858 -11 2 -161 -190 -497 -637 -264 -353 -482
-641 -484 -641 -5 0 -346 500 -353 516 -6 16 82 93 130 114 26 11 80 21 142
25 137 8 185 21 252 64 85 56 272 252 273 287 0 16 -162 63 -250 73 -217 24
-366 -67 -430 -262 -6 -21 -10 -41 -6 -44 3 -3 31 17 62 45 99 89 224 143 360
157 91 10 80 2 -26 -19 -197 -40 -389 -181 -492 -362 -16 -30 -31 -54 -32 -54
-1 0 3 33 10 73 7 39 13 91 14 114 0 50 -24 168 -45 220 -13 33 -13 36 0 19
35 -46 58 -130 59 -219 1 -85 1 -87 19 -66 27 34 50 125 43 173 -8 53 -34 93
-121 194 -52 59 -73 78 -82 70 -21 -17 -53 -137 -53 -199 0 -50 6 -71 46 -146
46 -88 77 -163 71 -170 -2 -2 -51 65 -108 149 -136 199 -205 283 -322 394
-277 262 -610 382 -922 330z"/>
<path d="M120 745 c-7 -88 -61 -429 -70 -440 -6 -7 -21 -16 -33 -18 -12 -2 11
-5 52 -6 62 -1 72 1 58 12 -15 11 -16 21 -5 105 6 50 14 92 17 92 3 0 41 -50
85 -110 43 -61 80 -110 82 -110 3 0 9 12 15 27 12 32 121 203 130 203 3 0 11
-44 17 -97 10 -88 10 -99 -5 -111 -14 -10 12 -12 138 -11 85 1 146 3 137 6
-21 5 -23 24 -6 70 l12 33 72 0 72 0 15 -37 c16 -42 13 -60 -11 -66 -10 -3 42
-5 113 -5 93 0 123 2 104 9 -26 10 -76 102 -199 367 -38 82 -60 112 -60 82 0
-17 -181 -414 -196 -430 -10 -10 -17 -11 -25 -3 -6 6 -24 102 -40 214 -16 112
-30 211 -32 219 -1 8 -49 -54 -106 -139 l-103 -153 -94 128 c-125 171 -133
181 -134 169z m730 -264 c11 -29 19 -56 16 -58 -2 -2 -26 -3 -54 -1 l-50 3 26
63 c14 34 29 59 33 55 4 -5 17 -32 29 -62z"/>
<path d="M1285 743 c-89 -20 -165 -77 -186 -141 -19 -57 -15 -151 9 -197 45
-89 124 -129 257 -129 94 -1 134 12 173 54 16 17 17 29 11 76 -9 69 -15 75
-23 26 -19 -123 -157 -173 -242 -88 -38 38 -54 89 -54 176 0 122 58 195 155
195 62 0 97 -21 126 -75 22 -40 32 -25 27 41 -3 43 -4 44 -48 56 -44 11 -166
15 -205 6z"/>
<path d="M1780 740 c0 -17 -181 -413 -197 -432 -8 -9 -25 -19 -37 -21 -11 -2
15 -4 59 -4 44 -1 72 1 63 4 -21 5 -23 24 -6 70 l12 33 72 0 72 0 15 -37 c16
-42 13 -60 -11 -66 -10 -3 42 -5 113 -5 93 0 123 2 104 9 -26 10 -76 102 -199
367 -38 82 -60 112 -60 82z m0 -259 c11 -29 19 -56 16 -58 -2 -2 -26 -3 -54
-1 l-50 3 26 63 c14 34 29 59 33 55 4 -5 17 -32 29 -62z"/>
<path d="M3130 740 c0 -22 -183 -416 -202 -435 -20 -20 -20 -20 -13 30 3 28 8
61 11 75 3 21 2 20 -10 -6 -31 -65 -97 -100 -177 -92 l-34 3 0 198 c0 185 1
200 19 213 18 12 8 14 -83 14 -94 0 -101 -1 -87 -16 14 -14 16 -44 14 -217
l-3 -201 -25 -13 c-21 -11 19 -13 235 -12 143 1 252 3 243 6 -21 5 -23 24 -6
70 l12 33 72 0 72 0 15 -37 c16 -42 13 -60 -11 -66 -10 -3 96 -5 233 -4 138 0
240 2 227 4 -31 6 -42 40 -42 126 l1 72 72 115 c40 63 84 121 98 127 21 11 16
13 -46 12 -38 0 -64 -3 -57 -6 6 -2 12 -12 12 -21 0 -26 -91 -175 -100 -166
-5 5 -27 42 -50 83 -35 61 -40 78 -31 93 11 17 5 18 -101 18 -97 0 -110 -2
-88 -13 14 -7 54 -60 92 -122 l68 -110 0 -90 c0 -58 -4 -95 -12 -103 -18 -18
-66 -15 -83 6 -8 9 -61 113 -117 230 -92 190 -118 235 -118 202z m0 -259 c11
-29 19 -56 16 -58 -2 -2 -26 -3 -54 -1 l-50 3 26 63 c14 34 29 59 33 55 4 -5
17 -32 29 -62z"/>
<path d="M4107 743 c-143 -3 -156 -5 -142 -19 13 -14 15 -45 13 -217 l-3 -201
-25 -13 c-21 -11 -7 -13 100 -11 69 0 115 3 102 5 -31 6 -42 40 -42 129 l0 74
54 0 c47 0 57 -4 75 -26 l21 -27 0 68 0 67 -19 -23 c-15 -19 -28 -23 -72 -24
l-54 0 0 90 0 90 61 3 c70 3 110 -19 117 -66 2 -15 5 3 6 41 1 58 -1 67 -16
65 -10 -1 -89 -4 -176 -5z"/>
<path d="M4470 740 c0 -17 -181 -413 -197 -432 -8 -9 -25 -19 -37 -21 -11 -2
15 -4 59 -4 44 -1 72 1 63 4 -21 5 -23 24 -6 70 l12 33 72 0 72 0 15 -37 c16
-42 13 -60 -11 -66 -10 -3 89 -5 218 -6 195 -1 231 1 210 12 l-25 13 -3 202
-2 202 24 0 c14 0 37 -10 51 -23 48 -40 31 -154 -25 -172 -15 -5 -18 -10 -12
-18 6 -7 17 -35 25 -63 39 -132 63 -147 237 -152 106 -3 122 -2 108 10 -16 12
-17 21 -6 106 6 50 14 92 17 92 3 0 41 -50 85 -110 43 -61 80 -110 82 -110 3
0 9 12 15 28 12 31 121 202 130 202 3 0 11 -44 17 -97 10 -88 10 -99 -5 -110
-14 -11 4 -13 98 -12 75 0 107 3 93 9 -12 5 -25 14 -29 20 -4 6 -20 102 -36
213 -16 111 -30 209 -32 217 -1 8 -49 -54 -105 -138 l-103 -153 -48 63 c-26
35 -76 103 -110 151 -35 48 -65 86 -67 84 -2 -2 -17 -98 -33 -214 -16 -116
-32 -216 -35 -222 -15 -24 -37 -8 -82 62 -26 39 -61 84 -78 99 -25 22 -27 28
-13 28 10 0 32 13 48 29 24 25 29 37 29 81 0 66 -12 87 -63 111 -35 16 -67 19
-196 19 -136 0 -152 -2 -135 -14 17 -13 19 -30 22 -198 2 -110 -1 -194 -7
-211 -12 -31 -43 -36 -66 -9 -8 9 -61 113 -117 230 -92 190 -118 235 -118 202z
m0 -259 c11 -29 19 -56 16 -58 -2 -2 -26 -3 -54 -1 l-50 3 26 63 c14 34 29 59
33 55 4 -5 17 -32 29 -62z"/>
<path d="M2030 730 c12 -7 16 -44 20 -185 l5 -176 41 -39 c83 -77 246 -81 329
-9 47 41 55 79 55 251 0 129 2 148 18 157 13 8 1 10 -47 11 -55 0 -62 -2 -47
-13 16 -11 17 -30 14 -184 -3 -166 -4 -172 -27 -197 -14 -15 -42 -31 -62 -37
-31 -10 -43 -9 -76 7 -63 31 -73 63 -73 246 0 139 2 158 18 167 12 8 -10 10
-83 11 -67 0 -95 -3 -85 -10z"/>
<path d="M275 115 c-49 -102 -50 -105 -27 -105 13 0 21 4 18 9 -13 20 7 41 39
41 32 0 52 -21 39 -41 -3 -5 19 -9 48 -9 29 0 48 4 41 8 -7 4 -33 51 -58 105
-26 53 -47 97 -48 97 -2 0 -25 -47 -52 -105z m55 -37 c0 -5 -11 -8 -25 -8 -29
0 -29 0 -13 35 l12 26 13 -23 c7 -13 12 -26 13 -30z"/>
<path d="M508 116 l-3 -106 35 0 35 0 -3 62 -4 61 39 -30 c21 -17 47 -41 58
-53 46 -50 50 -45 47 52 -2 59 1 94 8 104 11 12 6 14 -31 14 l-44 0 3 -62 4
-63 -39 35 c-21 19 -52 48 -70 64 l-32 28 -3 -106z"/>
<path d="M805 115 l0 -105 63 0 c108 0 152 31 152 105 0 74 -44 105 -152 105
l-63 0 0 -105z m108 86 c57 -22 57 -150 1 -172 -14 -5 -30 -7 -35 -3 -10 6
-13 167 -2 177 8 9 7 9 36 -2z"/>
<path d="M1175 115 l0 -105 44 0 c37 0 42 2 31 15 -8 10 -11 44 -9 105 l4 90
-35 0 -35 0 0 -105z"/>
<path d="M1348 116 l-3 -106 35 0 35 0 -3 62 -4 61 39 -30 c21 -17 47 -41 58
-53 46 -50 50 -45 47 52 -2 59 1 94 8 104 11 12 6 14 -31 14 l-44 0 3 -62 4
-63 -39 35 c-21 19 -52 48 -70 64 l-32 28 -3 -106z"/>
<path d="M1620 200 c0 -19 1 -20 25 -4 45 29 55 14 55 -79 0 -51 -5 -88 -12
-95 -9 -9 -1 -12 37 -12 38 0 46 3 37 12 -7 7 -12 44 -12 95 0 93 10 108 55
79 24 -16 25 -15 25 4 0 19 -6 20 -105 20 -99 0 -105 -1 -105 -20z"/>
<path d="M1895 115 l0 -106 80 3 c75 3 80 4 83 26 l4 24 -30 -22 c-42 -31 -66
-24 -70 23 -4 42 13 56 47 37 19 -10 21 -8 21 17 0 21 -3 24 -12 15 -7 -7 -22
-12 -35 -12 -20 0 -23 5 -23 40 0 49 20 61 62 37 27 -15 28 -15 28 3 0 18 -7
20 -77 20 l-78 0 0 -105z"/>
<path d="M2181 206 c-68 -38 -66 -152 4 -184 36 -17 116 -15 142 3 12 9 22 29
25 50 4 34 3 35 -29 35 -25 0 -32 -4 -31 -17 4 -48 -3 -63 -29 -69 -40 -10
-63 24 -63 92 0 41 5 59 20 74 27 27 66 25 95 -5 l25 -24 0 23 c0 13 -7 27
-16 30 -28 11 -118 6 -143 -8z"/>
<path d="M2435 115 l0 -105 45 0 c34 0 41 3 32 12 -13 13 -17 169 -6 181 4 3
15 2 25 -4 23 -12 26 -67 5 -75 -13 -5 -13 -11 0 -47 18 -51 37 -67 81 -67
l33 0 -33 48 -34 47 20 26 c24 33 16 66 -20 80 -13 5 -52 9 -86 9 l-62 0 0
-105z"/>
<path d="M2745 115 c-49 -102 -50 -105 -27 -105 13 0 21 4 18 9 -13 20 7 41
39 41 32 0 52 -21 39 -41 -3 -5 19 -9 48 -9 29 0 48 4 41 8 -7 4 -33 51 -58
105 -26 53 -47 97 -48 97 -2 0 -25 -47 -52 -105z m55 -37 c0 -5 -11 -8 -25 -8
-29 0 -29 0 -13 35 l12 26 13 -23 c7 -13 12 -26 13 -30z"/>
<path d="M2920 200 c0 -19 1 -20 25 -4 45 29 55 14 55 -79 0 -51 -5 -88 -12
-95 -9 -9 -1 -12 37 -12 38 0 46 3 37 12 -7 7 -12 44 -12 95 0 93 10 108 55
79 24 -16 25 -15 25 4 0 19 -6 20 -105 20 -99 0 -105 -1 -105 -20z"/>
<path d="M3195 115 l0 -106 80 3 c75 3 80 4 83 26 l4 24 -30 -22 c-42 -31 -66
-24 -70 23 -4 42 13 56 47 37 19 -10 21 -8 21 17 0 21 -3 24 -12 15 -7 -7 -22
-12 -35 -12 -20 0 -23 5 -23 40 0 49 20 61 62 37 27 -15 28 -15 28 3 0 18 -7
20 -77 20 l-78 0 0 -105z"/>
<path d="M3445 115 l0 -105 63 0 c108 0 152 31 152 105 0 74 -44 105 -152 105
l-63 0 0 -105z m108 86 c57 -22 57 -150 1 -172 -14 -5 -30 -7 -35 -3 -10 6
-13 167 -2 177 8 9 7 9 36 -2z"/>
<path d="M3815 204 c-10 -10 -15 -29 -13 -47 3 -26 12 -36 58 -62 57 -32 67
-50 38 -69 -23 -14 -69 3 -84 32 l-11 23 -6 -22 c-9 -36 10 -49 69 -49 41 0
59 5 74 20 38 38 21 92 -35 110 -48 16 -69 38 -54 56 15 19 48 18 71 -3 17
-15 18 -15 18 5 0 20 -5 22 -54 22 -37 0 -60 -5 -71 -16z"/>
<path d="M4045 115 l0 -106 80 3 c75 3 80 4 83 26 l4 24 -30 -22 c-42 -31 -66
-24 -70 23 -4 42 13 56 47 37 19 -10 21 -8 21 17 0 21 -3 24 -12 15 -7 -7 -22
-12 -35 -12 -20 0 -23 5 -23 40 0 49 20 61 62 37 27 -15 28 -15 28 3 0 18 -7
20 -77 20 l-78 0 0 -105z"/>
<path d="M4285 115 l0 -105 45 0 c34 0 41 3 32 12 -13 13 -17 169 -6 181 4 3
15 2 25 -4 23 -12 26 -67 5 -75 -13 -5 -13 -11 0 -47 18 -51 37 -67 81 -67
l33 0 -33 48 -34 47 20 26 c24 33 16 66 -20 80 -13 5 -52 9 -86 9 l-62 0 0
-105z"/>
<path d="M4588 114 l54 -106 45 98 c24 54 50 102 56 106 7 5 0 8 -16 8 -16 0
-26 -3 -23 -8 2 -4 -6 -32 -19 -62 l-23 -55 -21 48 c-12 27 -21 55 -21 63 0
10 -13 14 -43 14 l-44 0 55 -106z"/>
<path d="M4815 115 l0 -105 44 0 c37 0 42 2 31 15 -8 10 -11 44 -9 105 l4 90
-35 0 -35 0 0 -105z"/>
<path d="M5008 203 c-58 -37 -65 -108 -14 -159 30 -30 40 -34 86 -34 69 0 90
13 90 53 l-1 32 -13 -31 c-22 -49 -71 -59 -106 -22 -30 32 -28 117 3 146 31
29 62 28 93 -3 l25 -25 -3 27 c-3 27 -5 28 -68 30 -47 2 -72 -2 -92 -14z"/>
<path d="M5255 115 l0 -106 80 3 c75 3 80 4 83 26 l4 24 -30 -22 c-42 -31 -66
-24 -70 23 -4 42 13 56 47 37 19 -10 21 -8 21 17 0 21 -3 24 -12 15 -7 -7 -22
-12 -35 -12 -20 0 -23 5 -23 40 0 49 20 61 62 37 27 -15 28 -15 28 3 0 18 -7
20 -77 20 l-78 0 0 -105z"/>
<path d="M5505 204 c-10 -10 -15 -29 -13 -47 3 -26 12 -36 58 -62 57 -32 67
-50 38 -69 -23 -14 -69 3 -84 32 l-11 23 -6 -22 c-9 -36 10 -49 69 -49 41 0
59 5 74 20 38 38 21 92 -35 110 -48 16 -69 38 -54 56 15 19 48 18 71 -3 17
-15 18 -15 18 5 0 20 -5 22 -54 22 -37 0 -60 -5 -71 -16z"/>
</g>
</svg>
